# xmcd
#
# Track frame offsets:
#	150
#	12790
#	33444
#
# Disc length: 624 seconds
#
# Revision: 0
# Processed by: cddbd v1.4PL0 Copyright (c) Steve Scherf et al.
# Submitted via: EasyCDDAExtractor 5.0.4.1
#
DISCID=17026e03
DTITLE=The White Stripes - I Just Don't Know What To Do With Myself CDS
DYEAR=2003
DGENRE=Blues
TTITLE0=I Just Don't Know What To Do With Myself
TTITLE1=Who's To Say...
TTITLE2=I'm Finding It Harder To Be A Gentleman (Live On John Peel Show)
EXTD=
EXTT0=
EXTT1=
EXTT2=
PLAYORDER=
